<svg width="1024" height="1024" viewBox="0 0 1024 1024" fill="none" xmlns="http://www.w3.org/2000/svg">
  <defs>
    <linearGradient id="bg" x1="128" y1="120" x2="896" y2="920" gradientUnits="userSpaceOnUse">
      <stop stop-color="#1A3558"/>
      <stop offset="1" stop-color="#0D1A2E"/>
    </linearGradient>
    <linearGradient id="card" x1="278" y1="298" x2="776" y2="780" gradientUnits="userSpaceOnUse">
      <stop stop-color="#F5C65B"/>
      <stop offset="0.56" stop-color="#F0A33B"/>
      <stop offset="1" stop-color="#DB6D25"/>
    </linearGradient>
    <linearGradient id="focus" x1="674" y1="282" x2="826" y2="434" gradientUnits="userSpaceOnUse">
      <stop stop-color="#B9FFF3"/>
      <stop offset="1" stop-color="#2C92A0"/>
    </linearGradient>
    <filter id="shadow" x="140" y="154" width="744" height="748" filterUnits="userSpaceOnUse" color-interpolation-filters="sRGB">
      <feFlood flood-opacity="0" result="BackgroundImageFix"/>
      <feColorMatrix in="SourceAlpha" type="matrix" values="0 0 0 0 0 0 0 0 0 0 0 0 0 0 0 0 0 0 127 0" result="hardAlpha"/>
      <feOffset dy="30"/>
      <feGaussianBlur stdDeviation="28"/>
      <feComposite in2="hardAlpha" operator="out"/>
      <feColorMatrix type="matrix" values="0 0 0 0 0.0431373 0 0 0 0 0.101961 0 0 0 0 0.180392 0 0 0 0.34 0"/>
      <feBlend mode="normal" in2="BackgroundImageFix" result="effect1_dropShadow_1_1"/>
      <feBlend mode="normal" in="SourceGraphic" in2="effect1_dropShadow_1_1" result="shape"/>
    </filter>
  </defs>

  <rect x="80" y="80" width="864" height="864" rx="196" fill="url(#bg)"/>

  <circle cx="250" cy="236" r="176" fill="#2C92A0" opacity="0.12"/>
  <circle cx="824" cy="820" r="210" fill="#173251" opacity="0.42"/>
  <circle cx="784" cy="248" r="112" fill="#2C92A0" opacity="0.1"/>

  <g filter="url(#shadow)">
    <g transform="translate(512 520) rotate(-11)">
      <rect x="-250" y="-224" width="500" height="448" rx="118" fill="url(#card)"/>
      <rect x="-204" y="-178" width="408" height="356" rx="86" fill="#FFD989" opacity="0.18"/>

      <circle cx="170" cy="-146" r="72" fill="url(#focus)" opacity="0.2"/>
      <circle cx="176" cy="-150" r="76" stroke="#EFFFFC" stroke-width="26"/>
      <circle cx="176" cy="-150" r="19" fill="#F8FFFE"/>

      <g stroke="#122846" stroke-linecap="round" stroke-linejoin="round">
        <circle cx="-46" cy="8" r="112" stroke-width="50"/>
        <path d="M26 82L104 158" stroke-width="50"/>
        <path d="M36 -74H150" stroke-width="38"/>
        <path d="M36 2H172" stroke-width="38"/>
        <path d="M12 78H130" stroke-width="38"/>
      </g>
    </g>
  </g>
</svg>
